<svg id="Gradient" height="512" viewBox="0 0 512 512" width="512" xmlns="http://www.w3.org/2000/svg" xmlns:xlink="http://www.w3.org/1999/xlink"><linearGradient id="linear-gradient" gradientUnits="userSpaceOnUse" x1="256" x2="256" y1="496" y2="15.924"><stop offset="0" stop-color="#27c1e6"/><stop offset=".5" stop-color="#c275e9"/><stop offset="1" stop-color="#f2515d"/></linearGradient><path d="m56 416a8 8 0 0 1 8-8h120a40.045 40.045 0 0 1 40 40v8a24.027 24.027 0 0 0 24 24h200a8 8 0 0 1 0 16h-200a40.045 40.045 0 0 1 -40-40v-8a24.027 24.027 0 0 0 -24-24h-120a8 8 0 0 1 -8-8zm143.768-54.623a8 8 0 0 1 -3.961 2.156h-.009l-.178.039-129.92 28.245a8 8 0 0 1 -9.516-9.516l28.244-129.929c.01-.051.022-.1.033-.151l.006-.028a7.99 7.99 0 0 1 2.156-3.961l175.324-175.312c.015-.015.027-.032.042-.047l33.942-33.941c.009-.01.02-.017.03-.027l11.28-11.29a40.069 40.069 0 0 1 56.573 0l56.563 56.573a40 40 0 0 1 0 56.573l-11.277 11.277c-.009.01-.018.021-.028.031l-33.945 33.941c-.01.01-.021.018-.03.027zm-114.9-35.706 37.462 37.462 55.759-12.121-81.1-81.1zm216.72-201.885-164.049 164.049 22.626 22.626 164.05-164.049zm-130.109 197.989 22.631 22.631 164.045-164.054-22.626-22.626zm147.076-282.846-5.655 5.659 90.51 90.512 5.652-5.654a24.029 24.029 0 0 0 0-33.946l-56.562-56.574a24.048 24.048 0 0 0 -33.945.003zm-39.6 39.6 90.51 90.51 22.635-22.627-90.512-90.512zm-175.361 175.361 22.631 22.631 164.049-164.049-22.626-22.627zm-29.133 119.649 29.281-6.365-22.916-22.916z" fill="url(#linear-gradient)"/></svg>